<svg xmlns="http://www.w3.org/2000/svg" width="108" height="108" viewBox="0 0 108 108">
  <g id="delivery" transform="translate(-588 -2546)">
    <rect id="Rectangle_1393" data-name="Rectangle 1393" width="108" height="108" rx="28" transform="translate(588 2546)" fill="#5b9594"/>
    <g id="delivery-2" data-name="delivery" transform="translate(605.172 2578.205)">
      <path id="Path_31772" data-name="Path 31772" d="M52.509.434C58.895,1.916,61.338,5.65,64.4,10.79H52.509ZM15.188,11.221a1.894,1.894,0,0,1,2.158,2.014,2.158,2.158,0,0,1-2.152,2.158H2.157a2.158,2.158,0,0,0,0,4.316H21.579a2.158,2.158,0,1,1,.008,4.316H2.157a2.158,2.158,0,1,0,0,4.316H6.9v6.474a2.158,2.158,0,0,0,2.158,2.158H13.4a8.274,8.274,0,0,0,16.212,0H51.524a8.274,8.274,0,0,0,16.212,0H71.5a2.158,2.158,0,0,0,2.158-2.158V21.867c0-6.332-6.678-6.752-6.684-6.761H50.351a2.158,2.158,0,0,1-2.158-2.158V0H9.063A2.158,2.158,0,0,0,6.9,2.158V6.905H4.315a2.158,2.158,0,1,0,0,4.316Zm47.239,21.3a3.956,3.956,0,1,1-6.754,2.8A3.957,3.957,0,0,1,62.427,32.52Zm-38.123,0a3.956,3.956,0,1,1-6.754,2.8A3.957,3.957,0,0,1,24.3,32.52Zm0,0" fill="#fff" fill-rule="evenodd"/>
    </g>
  </g>
</svg>
