<svg xmlns="http://www.w3.org/2000/svg" width="108" height="108" viewBox="0 0 108 108">
  <g id="price" transform="translate(-588 -2422)">
    <rect id="Rectangle_1394" data-name="Rectangle 1394" width="108" height="108" rx="28" transform="translate(588 2422)" fill="#5b9594"/>
    <g id="price-2" data-name="price" transform="translate(602.669 2435.559)">
      <path id="Path_31773" data-name="Path 31773" d="M32.247,17.1,11.706,52.658a6.463,6.463,0,0,0,2.366,8.829l19.6,11.324a8.971,8.971,0,0,1-.646-3.348V28.395A14.219,14.219,0,0,1,37,18.519L45.251,10,39.1,11.732A11.634,11.634,0,0,0,32.247,17.1Z" transform="translate(2.181 2.087)" fill="#fff"/>
      <path id="Path_31774" data-name="Path 31774" d="M5.278,40.326a6.463,6.463,0,0,0,0,9.139l5.171,5.171a9.049,9.049,0,0,1,1.2-3.426C14.663,46.04,27.978,22.94,35.2,10.53,34.338,11.2,35.915,9.716,5.278,40.326Z" transform="translate(0 2.242)" fill="#fff"/>
      <path id="Path_31775" data-name="Path 31775" d="M44.3,40.171h.375V35H44.3a2.585,2.585,0,1,0,0,5.171Z" transform="translate(11.216 9.403)" fill="#fff"/>
      <path id="Path_31776" data-name="Path 31776" d="M57.146,2.87a17.619,17.619,0,0,1-3.8,8.273,6.463,6.463,0,0,0-9.268,0L33.258,22.428A11.634,11.634,0,0,0,30,30.481V71.549a6.463,6.463,0,0,0,6.463,6.463H61.024a6.463,6.463,0,0,0,6.463-6.463V30.481a11.634,11.634,0,0,0-3.258-8.053L56.978,14.9a16.8,16.8,0,0,1-5.8,4.1,2.6,2.6,0,1,1-.53-2.6,13.392,13.392,0,0,0,2.262-1.293h0a18.175,18.175,0,0,0,2.275-2.029h0a19.674,19.674,0,0,0,4.55-9.889ZM47.722,41.818H48.1V38.677h2.585v3.141h.375a5.171,5.171,0,0,1,5.171,5.171H53.643A2.585,2.585,0,0,0,51.058,44.4h-.375v5.171h.375a5.171,5.171,0,1,1,0,10.341h-.375v3.141H48.1V59.915h-.375a5.171,5.171,0,0,1-5.171-5.171h2.585a2.585,2.585,0,0,0,2.585,2.585H48.1V52.159h-.375a5.171,5.171,0,1,1,0-10.341Z" transform="translate(7.789)" fill="#fff"/>
      <path id="Path_31777" data-name="Path 31777" d="M48.96,43.585A2.585,2.585,0,0,0,46.375,41H46v5.171h.375A2.585,2.585,0,0,0,48.96,43.585Z" transform="translate(12.472 11.159)" fill="#fff"/>
    </g>
  </g>
</svg>
