<svg xmlns="http://www.w3.org/2000/svg" width="76.503" height="54.286" viewBox="0 0 76.503 54.286">
  <g id="sofa" transform="translate(0.001 -73.665)">
    <path id="Path_31778" data-name="Path 31778" d="M58.836,385.425l-.716,2.867A3.547,3.547,0,1,0,65,390.012l1.138-4.551H59.769C59.455,385.461,59.143,385.449,58.836,385.425Z" transform="translate(-49.264 -264.748)" fill="#222"/>
    <path id="Path_31779" data-name="Path 31779" d="M402.728,385.425c-.308.024-.62.036-.933.036h-6.37l1.137,4.551a3.547,3.547,0,0,0,6.882-1.721Z" transform="translate(-335.798 -264.748)" fill="#222"/>
    <path id="Path_31780" data-name="Path 31780" d="M43.894,86.965a8.755,8.755,0,0,1,7.838,6.986l1.856,9.283a2.24,2.24,0,0,0,2.191,1.8H94.438a2.24,2.24,0,0,0,2.191-1.8l1.856-9.283a8.759,8.759,0,0,1,7.036-6.882l.3-1.695a9.96,9.96,0,0,0-9.8-11.709H53.364A9.959,9.959,0,0,0,43.626,85.71Z" transform="translate(-36.858)" fill="#222"/>
    <path id="Path_31781" data-name="Path 31781" d="M74.8,179.661a6.339,6.339,0,0,0-4.613-2,6.273,6.273,0,0,0-1.988.324h0a6.365,6.365,0,0,0-4.206,4.755l-1.856,9.282a4.66,4.66,0,0,1-4.557,3.736H18.922a4.66,4.66,0,0,1-4.557-3.736l-1.856-9.282a6.362,6.362,0,0,0-4.934-4.949h0A6.314,6.314,0,0,0,.013,184.4L.854,197a9.661,9.661,0,0,0,9.314,9.6v0c.112,0,.225.006.338.006H66c.113,0,.226,0,.338-.006v0a9.661,9.661,0,0,0,9.314-9.6l.841-12.607A6.338,6.338,0,0,0,74.8,179.661Z" transform="translate(0 -88.312)" fill="#222"/>
  </g>
</svg>
